<?xml version="1.0" encoding="UTF-8" standalone="no"?>
<!DOCTYPE svg PUBLIC "-//W3C//DTD SVG 1.1//EN" "http://www.w3.org/Graphics/SVG/1.1/DTD/svg11.dtd">
<!-- Generated by Microsoft Visio, SVG Export python.svg python -->
<svg xmlns="http://www.w3.org/2000/svg" xmlns:xlink="http://www.w3.org/1999/xlink" xmlns:ev="http://www.w3.org/2001/xml-events"
		xmlns:v="http://schemas.microsoft.com/visio/2003/SVGExtensions/" width="26.082in" height="26.2963in"
		viewBox="0 0 1877.9 1893.34" xml:space="preserve" color-interpolation-filters="sRGB" class="st3">
	<v:documentProperties v:langID="1033"/>

	<style type="text/css">
	<![CDATA[
		.st1 {fill:url(#grad0-4);stroke:none;stroke-linecap:butt;stroke-width:3.94901}
		.st2 {fill:url(#grad0-8);stroke:none;stroke-linecap:butt;stroke-width:3.94901}
		.st3 {fill:none;fill-rule:evenodd;font-size:12px;overflow:visible;stroke-linecap:square;stroke-miterlimit:3}
	]]>
	</style>

	<defs id="Patterns_And_Gradients">
		<linearGradient id="grad0-4" x1="0" y1="0" x2="1" y2="0" gradientTransform="rotate(40.935394101586 0.5 0.5)">
			<stop offset="0" stop-color="#5a9fd4" stop-opacity="1"/>
			<stop offset="1" stop-color="#306998" stop-opacity="1"/>
		</linearGradient>
		<linearGradient id="grad0-8" x1="0" y1="0" x2="1" y2="0" gradientTransform="rotate(-125.4494224851 0.5 0.5)">
			<stop offset="0" stop-color="#ffd43b" stop-opacity="1"/>
			<stop offset="1" stop-color="#ffe873" stop-opacity="1"/>
		</linearGradient>
	</defs>
	<g v:mID="0" v:index="1" v:groupContext="foregroundPage">
		<title>python</title>
		<v:pageProperties v:drawingScale="1" v:pageScale="1" v:drawingUnits="19" v:shadowOffsetX="8.99997"
				v:shadowOffsetY="-8.99997"/>
		<g id="shape2-1" v:mID="2" v:groupContext="shape" transform="translate(18,-511.975)">
			<title>Sheet.2</title>
			<path d="M909.62 533.94 C834.63 534.28 763.03 540.68 700.03 551.83 C514.41 584.64 480.71 653.26 480.71 779.85 L480.71
						 947.03 L919.34 947.03 L919.34 1002.75 L316.08 1002.75 C188.61 1002.75 76.97 1079.38 42.06 1225.15 C1.78
						 1392.23 0 1496.49 42.06 1670.94 C73.24 1800.81 147.71 1893.34 275.18 1893.34 L426 1893.34 L426 1692.93 C426
						 1548.15 551.27 1420.45 700.03 1420.45 L1138.15 1420.45 C1260.11 1420.45 1357.47 1320.03 1357.47 1197.55
						 L1357.47 779.84 C1357.47 660.97 1257.18 571.66 1138.15 551.82 C1062.78 539.29 984.62 533.58 909.62 533.94
						 ZM672.41 668.38 C717.73 668.38 754.72 705.99 754.72 752.22 C754.72 798.29 717.71 835.56 672.41 835.56 C626.95
						 835.56 590.11 798.31 590.11 752.22 C590.11 705.99 626.95 668.38 672.41 668.38 Z" class="st1"/>
		</g>
		<g id="shape3-5" v:mID="3" v:groupContext="shape" transform="translate(498.708,-18)">
			<title>Sheet.3</title>
			<path d="M931.46 508.76 L931.46 703.54 C931.46 854.55 803.43 981.65 657.44 981.65 L219.32 981.65 C99.3 981.65 0 1084.36
						 0 1204.55 L0 1622.22 C0 1741.11 103.36 1811.03 219.32 1845.12 C358.16 1885.96 491.31 1893.34 657.44 1845.12
						 C767.87 1813.16 876.76 1748.8 876.76 1622.22 L876.76 1455.06 L438.63 1455.06 L438.63 1399.34 L1096.07 1399.34
						 C1223.56 1399.34 1271.06 1310.41 1315.39 1176.95 C1361.2 1039.56 1359.25 907.41 1315.39 731.15 C1283.88
						 604.25 1223.71 508.76 1096.07 508.76 L931.46 508.76 ZM685.04 1566.5 C730.5 1566.5 767.35 1603.75 767.35
						 1649.84 C767.35 1696.07 730.5 1733.68 685.04 1733.68 C639.72 1733.68 602.74 1696.07 602.74 1649.84 C602.74
						 1603.77 639.74 1566.5 685.04 1566.5 Z" class="st2"/>
		</g>
	</g>
</svg>
