<?xml version="1.0" encoding="UTF-8" standalone="no"?>
<!DOCTYPE svg PUBLIC "-//W3C//DTD SVG 1.1//EN" "http://www.w3.org/Graphics/SVG/1.1/DTD/svg11.dtd">
<!-- Generated by Microsoft Visio, SVG Export python.svg python -->
<svg xmlns="http://www.w3.org/2000/svg" xmlns:xlink="http://www.w3.org/1999/xlink" xmlns:ev="http://www.w3.org/2001/xml-events"
		xmlns:v="http://schemas.microsoft.com/visio/2003/SVGExtensions/" width="108.592in" height="31.9208in"
		viewBox="0 0 7818.65 2298.3" xml:space="preserve" color-interpolation-filters="sRGB" class="st7">
	<v:documentProperties v:langID="1033" v:viewMarkup="false"/>

	<style type="text/css">
	<![CDATA[
		.st1 {fill:#646464;stroke:none;stroke-linecap:butt;stroke-width:3.94902}
		.st2 {fill:url(#grad0-6);stroke:none;stroke-linecap:butt;stroke-width:3.94902}
		.st3 {fill:url(#grad0-10);stroke:none;stroke-linecap:butt;stroke-width:3.94902}
		.st4 {fill:#646464}
		.st5 {stroke:none;stroke-linecap:butt;stroke-width:3.94902}
		.st6 {fill:url(#grad6-17);stroke:none;stroke-linecap:butt;stroke-width:3.94902}
		.st7 {fill:none;fill-rule:evenodd;font-size:12px;overflow:visible;stroke-linecap:square;stroke-miterlimit:3}
	]]>
	</style>

	<defs id="Patterns_And_Gradients">
		<linearGradient id="grad0-6" x1="0" y1="0" x2="1" y2="0" gradientTransform="rotate(40.935394101586 0.5 0.5)">
			<stop offset="0" stop-color="#5a9fd4" stop-opacity="1"/>
			<stop offset="1" stop-color="#306998" stop-opacity="1"/>
		</linearGradient>
		<linearGradient id="grad0-10" x1="0" y1="0" x2="1" y2="0" gradientTransform="rotate(-125.4494224851 0.5 0.5)">
			<stop offset="0" stop-color="#ffd43b" stop-opacity="1"/>
			<stop offset="1" stop-color="#ffe873" stop-opacity="1"/>
		</linearGradient>
		<radialGradient id="grad6-17" cx="1" cy="0" r="1.4">
			<stop offset="0" stop-color="#b8b8b8" stop-opacity="1"/>
			<stop offset="1" stop-color="#7f7f7f" stop-opacity="1"/>
		</radialGradient>
	</defs>
	<g v:mID="0" v:index="1" v:groupContext="foregroundPage">
		<title>python</title>
		<v:pageProperties v:drawingScale="1" v:pageScale="1" v:drawingUnits="19" v:shadowOffsetX="9" v:shadowOffsetY="-9"/>
		<g id="shape1-1" v:mID="1" v:groupContext="shape" transform="translate(2367.1,-428.713)">
			<title>Sheet.1</title>
			<path d="M590.81 1410.43 C590.81 1172.2 522.88 1049.9 387.02 1043.21 C332.95 1040.65 280.19 1049.26 228.84 1069.2 C187.86
						 1083.86 160.27 1098.39 145.76 1113.06 L145.76 1681.69 C232.67 1736.23 309.83 1761.59 377.14 1757.6 C519.51
						 1748.16 590.81 1632.56 590.81 1410.43 ZM758.4 1420.31 C758.4 1541.34 730.01 1641.8 672.92 1721.69 C609.3
						 1812.11 521.12 1858.67 408.38 1861.22 C323.4 1863.92 235.84 1837.3 145.75 1781.48 L145.75 2298.3 L0 2246.3
						 L0 1099.17 C23.92 1069.84 54.71 1044.65 92.01 1023.26 C178.76 972.71 284.15 946.73 408.22 945.46 L410.28
						 947.52 C523.67 946.1 611.03 992.65 672.43 1087.05 C729.69 1173.64 758.4 1284.62 758.4 1420.31 ZM1649.13
						 1759.49 C1649.13 1921.83 1632.86 2034.24 1600.34 2096.75 C1567.66 2159.24 1505.46 2209.15 1413.61 2246.32
						 C1339.15 2275.65 1258.61 2291.6 1172.2 2294.32 L1148.1 2202.48 C1235.97 2190.54 1297.84 2178.56 1333.71
						 2166.6 C1404.35 2142.68 1452.83 2106.02 1479.46 2056.89 C1500.83 2016.88 1511.35 1940.5 1511.35 1827.45
						 L1511.35 1789.5 C1411.68 1834.8 1307.24 1857.27 1198.03 1857.27 C1126.26 1857.27 1062.96 1834.8 1008.42
						 1789.5 C947.19 1740.22 916.58 1677.73 916.58 1601.98 L916.58 995.37 L1062.32 945.46 L1062.32 1556.01 C1062.32
						 1621.22 1083.36 1671.46 1125.46 1706.7 C1167.55 1741.94 1222.09 1758.86 1288.9 1757.56 C1355.72 1756.12
						 1427.31 1730.29 1503.36 1679.74 L1503.36 967.44 L1649.11 967.44 L1649.11 1759.49 L1649.13 1759.49 ZM2218.06
						 1853.25 A580.928 580.928 0 0 1 2170.06 1855.31 C2087.63 1855.31 2023.35 1835.71 1977.45 1796.32 C1931.67
						 1756.94 1908.72 1702.58 1908.72 1633.2 L1908.72 1059.14 L1808.89 1059.14 L1808.89 967.46 L1908.72 967.46
						 L1908.72 723.97 L2054.3 672.14 L2054.3 967.46 L2218.06 967.46 L2218.06 1059.14 L2054.3 1059.14 L2054.3 1629.21
						 C2054.3 1683.91 2068.96 1722.65 2098.29 1745.31 C2123.49 1763.96 2163.52 1774.64 2218.05 1777.36 L2218.05
						 1853.25 L2218.06 1853.25 ZM3100.51 1841.29 L2954.77 1841.29 L2954.77 1278.72 C2954.77 1221.48 2941.39 1172.2
						 2914.75 1131.07 C2883.98 1084.5 2841.25 1061.22 2786.38 1061.22 C2719.57 1061.22 2636.02 1096.46 2535.72
						 1166.93 L2535.72 1841.29 L2389.99 1841.29 L2389.99 496.58 L2535.72 450.66 L2535.72 1063.13 C2628.84 995.35
						 2730.58 961.39 2841.08 961.39 C2918.27 961.39 2980.76 987.39 3028.61 1039.21 C3076.61 1091.02 3100.53 1155.61
						 3100.53 1232.8 L3100.53 1841.29 L3100.51 1841.29 ZM3875.16 1387.48 C3875.16 1295.94 3857.78 1220.36 3823.17
						 1160.57 C3782.02 1087.7 3718.09 1049.26 3631.66 1045.28 C3471.88 1054.53 3392.14 1169.01 3392.14 1388.44
						 C3392.14 1489.05 3408.73 1573.09 3442.22 1640.54 C3484.95 1726.5 3549.06 1768.92 3634.54 1767.48 C3794.95
						 1766.18 3875.16 1639.58 3875.16 1387.48 ZM4034.78 1388.43 C4034.78 1518.71 4001.45 1627.14 3934.95 1713.72
						 C3861.74 1810.68 3760.67 1859.3 3631.66 1859.3 C3503.78 1859.3 3404.12 1810.67 3332.2 1713.72 C3266.97 1627.14
						 3234.43 1518.71 3234.43 1388.43 C3234.43 1265.97 3269.67 1162.96 3340.17 1079.08 C3414.63 990.1 3512.53
						 945.46 3633.57 945.46 C3754.59 945.46 3853.14 990.1 3929.04 1079.08 C3999.54 1162.96 4034.78 1265.97 4034.78
						 1388.43 ZM4870.33 1841.29 L4724.58 1841.29 L4724.58 1246.83 C4724.58 1181.62 4704.98 1130.75 4665.75 1094.07
						 C4626.52 1057.55 4574.2 1039.85 4508.99 1041.28 C4439.81 1042.55 4373.93 1065.19 4311.43 1109.05 L4311.43
						 1841.29 L4165.69 1841.29 L4165.69 1091.04 C4249.56 1029.99 4326.75 990.1 4397.22 971.45 C4463.71 954.08
						 4522.39 945.46 4572.94 945.46 C4607.53 945.46 4640.08 948.79 4670.69 955.5 C4727.93 968.74 4774.51 993.29
						 4810.37 1029.33 C4850.4 1069.2 4870.33 1117.02 4870.33 1173 L4870.33 1841.29 Z" class="st1"/>
		</g>
		<g id="shape2-3" v:mID="2" v:groupContext="shape" transform="translate(18,-865.645)">
			<title>Sheet.2</title>
			<path d="M909.62 938.9 C834.63 939.24 763.03 945.64 700.03 956.79 C514.41 989.6 480.71 1058.22 480.71 1184.81 L480.71
						 1351.99 L919.34 1351.99 L919.34 1407.71 L316.08 1407.71 C188.61 1407.71 76.97 1484.34 42.06 1630.11 C1.78
						 1797.19 0 1901.45 42.06 2075.9 C73.24 2205.77 147.71 2298.3 275.18 2298.3 L426 2298.3 L426 2097.89 C426
						 1953.11 551.27 1825.41 700.03 1825.41 L1138.15 1825.41 C1260.11 1825.41 1357.47 1724.99 1357.47 1602.51
						 L1357.47 1184.8 C1357.47 1065.93 1257.18 976.62 1138.15 956.78 C1062.78 944.25 984.62 938.54 909.62 938.9
						 ZM672.41 1073.34 C717.73 1073.34 754.72 1110.95 754.72 1157.18 C754.72 1203.25 717.71 1240.52 672.41 1240.52
						 C626.95 1240.52 590.11 1203.27 590.11 1157.18 C590.11 1110.95 626.95 1073.34 672.41 1073.34 Z" class="st2"/>
		</g>
		<g id="shape3-7" v:mID="3" v:groupContext="shape" transform="translate(498.71,-371.668)">
			<title>Sheet.3</title>
			<path d="M931.46 913.72 L931.46 1108.5 C931.46 1259.51 803.43 1386.61 657.44 1386.61 L219.32 1386.61 C99.3 1386.61 0
						 1489.32 0 1609.51 L0 2027.18 C0 2146.07 103.36 2215.99 219.32 2250.08 C358.16 2290.92 491.31 2298.3 657.44
						 2250.08 C767.87 2218.12 876.76 2153.76 876.76 2027.18 L876.76 1860.02 L438.63 1860.02 L438.63 1804.3 L1096.07
						 1804.3 C1223.56 1804.3 1271.06 1715.37 1315.39 1581.91 C1361.2 1444.52 1359.25 1312.37 1315.39 1136.11 C1283.88
						 1009.21 1223.71 913.72 1096.07 913.72 L931.46 913.72 ZM685.04 1971.46 C730.5 1971.46 767.35 2008.71 767.35
						 2054.8 C767.35 2101.03 730.5 2138.64 685.04 2138.64 C639.72 2138.64 602.74 2101.03 602.74 2054.8 C602.74
						 2008.73 639.74 1971.46 685.04 1971.46 Z" class="st3"/>
		</g>
		<g id="shape4-11" v:mID="4" v:groupContext="shape" transform="translate(7460.7,-1889.49)">
			<title>Sheet.4</title>
			<path d="M60.55 2298.3 L86.1 2298.3 L86.1 2138.04 L146.61 2138.04 L146.61 2118.93 L0 2118.93 L0 2138.04 L60.53 2138.04
						 L60.53 2298.3 L60.55 2298.3 ZM169.29 2298.3 L191.11 2298.3 L191.11 2151.93 L238.49 2298.28 L262.78 2298.28
						 L312.17 2152.42 L312.17 2298.3 L335.99 2298.3 L335.99 2118.95 L304.48 2118.95 L250.51 2272.61 L204.51 2118.95
						 L169.29 2118.95 L169.29 2298.3 Z" class="st4"/>
			<path d="M60.55 2298.3 L86.1 2298.3 L86.1 2138.04 L146.61 2138.04 L146.61 2118.93 L0 2118.93 L0 2138.04 L60.53 2138.04
						 L60.53 2298.3M169.29 2298.3 L191.11 2298.3 L191.11 2151.93 L238.49 2298.28 L262.78 2298.28 L312.17 2152.42
						 L312.17 2298.3 L335.99 2298.3 L335.99 2118.95 L304.48 2118.95 L250.51 2272.61 L204.51 2118.95 L169.29 2118.95
						 L169.29 2298.3" class="st5"/>
		</g>
		<g id="shape5-14" v:mID="5" v:groupContext="shape" transform="translate(354.484,-21.949)">
			<title>Sheet.5</title>
			<path d="M1175.65 2184.32 C1175.65 2247.27 912.47 2298.3 587.82 2298.3 C263.18 2298.3 0 2247.27 0 2184.32 C0 2121.37
						 263.18 2070.33 587.82 2070.33 C912.47 2070.33 1175.65 2121.37 1175.65 2184.32 Z" class="st6"/>
		</g>
	</g>
</svg>
