<?xml version="1.0" encoding="UTF-8" standalone="no"?>
<!DOCTYPE svg PUBLIC "-//W3C//DTD SVG 1.1//EN" "http://www.w3.org/Graphics/SVG/1.1/DTD/svg11.dtd">
<!-- Generated by Microsoft Visio, SVG Export tensorflow.svg tensorflow -->
<svg xmlns="http://www.w3.org/2000/svg" xmlns:xlink="http://www.w3.org/1999/xlink" xmlns:ev="http://www.w3.org/2001/xml-events"
		xmlns:v="http://schemas.microsoft.com/visio/2003/SVGExtensions/" width="101.26in" height="28.4015in"
		viewBox="0 0 7290.75 2044.91" xml:space="preserve" color-interpolation-filters="sRGB" class="st6">
	<v:documentProperties v:langID="1033"/>

	<style type="text/css">
	<![CDATA[
		.st1 {fill:#f6bd3a;stroke:none;stroke-linecap:butt;stroke-width:0.749998}
		.st2 {fill:#eb8c23;stroke:none;stroke-linecap:butt;stroke-width:0.749998}
		.st3 {fill:#e35a2b;stroke:none;stroke-linecap:butt;stroke-width:0.749998}
		.st4 {fill:#ef6639;stroke:none;stroke-linecap:butt;stroke-width:0.749998}
		.st5 {fill:#a6a7a9;stroke:none;stroke-linecap:butt;stroke-width:0.749998}
		.st6 {fill:none;fill-rule:evenodd;font-size:12px;overflow:visible;stroke-linecap:square;stroke-miterlimit:3}
	]]>
	</style>

	<g v:mID="0" v:index="1" v:groupContext="foregroundPage">
		<title>tensorflow</title>
		<v:pageProperties v:drawingScale="1" v:pageScale="1" v:drawingUnits="19" v:shadowOffsetX="8.99998"
				v:shadowOffsetY="-8.99998"/>
		<g id="shape1-1" v:mID="1" v:groupContext="shape" transform="translate(18.75,-791.496)">
			<title>Sheet.1</title>
			<path d="M813.05 1891.04 L1083.84 1733.78 L1350.91 1891.04 L1083.84 2044.91 L813.05 1894.43 L813.05 1891.04 ZM0 1426.05
						 L1084.52 810.25 L1890.8 1268.46 L1623.73 1733.78 L1085.2 1425.71 L272.15 1887.65 L0 1426.05 Z" class="st1"/>
		</g>
		<g id="shape2-3" v:mID="2" v:groupContext="shape" transform="translate(289.836,-18.75)">
			<title>Sheet.2</title>
			<path d="M541.92 1733.78 L541.92 1426.05 L808.99 1272.18 L1079.78 1117.98 L1079.78 1426.05 L812.71 1579.92 L812.71 1887.65
						 L541.92 2044.91 L541.92 1733.78 ZM541.92 1118.32 L270.79 964.45 L0 1114.93 L0 806.86 L812.71 345.26 L812.71
						 961.06 L541.92 1118.32 ZM1348.2 807.2 L1348.2 653.33 L1618.99 496.07 L1622.38 803.81 L1351.59 961.06 L1348.2
						 807.2 Z" class="st2"/>
		</g>
		<g id="shape3-5" v:mID="3" v:groupContext="shape" transform="translate(18.75,-18.75)">
			<title>Sheet.3</title>
			<path d="M541.92 1880.87 L541.92 964.45 L808.99 813.63 L812.04 1118.32 L1083.17 1268.8 L1083.17 1579.92 L812.04 1435.88
						 L812.04 2044.91 L541.92 1880.87 ZM133.87 1034.61 L0 954.28 L0 653.33 L270.79 807.2 L270.79 1114.93 L133.87
						 1034.61 ZM1083.84 653.33 L1083.84 345.26 L1619.33 653.33 L1622.38 961.06 L1083.84 653.33 Z" class="st3"/>
		</g>
		<g id="shape4-7" v:mID="4" v:groupContext="shape" transform="translate(2067.04,-584.345)">
			<title>Sheet.4</title>
			<path d="M366.03 1325.05 L366.03 2032.37 L241.65 2032.37 L241.65 1325.05 L0 1325.05 L0 1203.05 L607.33 1203.05 L607.33
						 1325.05 L366.03 1325.05 ZM1018.77 1581.95 A349.701 349.701 0 0 1 1028.94 1676.17 L628.01 1795.13 C631.06
						 1824.95 630.04 1812.75 639.53 1834.1 C649.02 1855.45 660.88 1873.08 675.11 1887.65 C689.35 1902.22 704.94
						 1911.71 721.89 1918.15 C738.49 1924.93 757.47 1928.32 776.11 1928.32 C802.89 1928.32 826.27 1923.91 847.96
						 1915.44 A266.28 266.28 -180 0 0 911 1878.5 L983.53 1956.79 A294.31 294.31 0 0 1 891 2017.12 C857.11 2031.35
						 816.44 2038.47 768.99 2038.47 A257.604 257.604 0 0 1 665.63 2017.12 C632.07 2002.88 603.94 1981.87 579.54
						 1954.42 C555.14 1926.63 535.82 1892.73 521.59 1852.4 C507.35 1812.41 500.24 1765.64 500.24 1715.14 C500.24
						 1662.27 507.01 1615.16 520.57 1575.51 C533.79 1535.86 552.43 1501.97 576.15 1474.18 A232.244 232.244 0 0
						 1 661.9 1412.16 A280.962 280.962 0 0 1 772.72 1390.8 C816.78 1390.8 855.42 1399.28 887.95 1415.88 C920.83
						 1432.49 948.28 1454.86 969.63 1482.65 A289.638 289.638 0 0 1 1018.43 1582.63 L1018.77 1581.95 ZM902.19 1610.08
						 C900.83 1588.73 885.92 1563.31 874.06 1546.37 A104.109 104.109 -180 0 0 829.66 1512.81 C811.36 1505.36 786.62
						 1502.31 764.93 1503.32 C724.94 1505.02 678.17 1519.25 656.14 1550.09 C633.77 1580.93 626.99 1634.48 627.67
						 1691.42 L902.19 1610.08 ZM1469.53 2024.91 L1469.53 1673.12 C1469.53 1610.08 1458 1566.36 1435.64 1540.6
						 C1413.27 1514.51 1381.75 1502.65 1342.1 1502.65 C1301.09 1502.65 1269.57 1516.2 1247.54 1543.99 C1225.17
						 1571.44 1214.33 1610.76 1214.33 1661.26 L1214.33 2024.57 L1091.64 2024.57 L1091.64 1403.34 L1213.65 1403.34
						 L1213.65 1462.31 C1229.58 1439.61 1251.27 1422.32 1279.4 1409.11 C1307.53 1395.89 1337.69 1390.13 1369.89
						 1390.13 C1442.41 1390.13 1497.66 1413.51 1534.94 1459.94 C1572.56 1506.71 1591.2 1576.19 1591.2 1668.37
						 L1591.2 2024.91 L1469.53 2024.91 ZM2092.11 1861.22 C2092.11 1896.12 2085.67 1925.27 2072.79 1948.32 A160.169
						 160.169 0 0 1 2021.28 2004.58 C1999.93 2018.81 1974.51 2029.32 1947.73 2035.42 A400.422 400.422 0 0 1 1859.62
						 2044.91 C1816.91 2044.91 1774.55 2037.45 1732.19 2022.2 A435.791 435.791 0 0 1 1621.36 1965.6 L1676.6 1873.76
						 A345.031 345.031 -180 0 0 1767.09 1919.85 C1798.27 1930.35 1828.44 1935.44 1857.58 1935.44 C1933.5 1935.44
						 1971.12 1912.39 1971.12 1866.64 C1971.12 1842.91 1958.58 1823.93 1932.82 1809.7 C1907.06 1795.81 1871.82
						 1779.88 1826.74 1763.27 A640.675 640.675 0 0 1 1742.35 1724.63 C1718.97 1711.75 1699.99 1697.52 1685.42
						 1682.61 A133.474 133.474 0 0 1 1653.9 1632.45 C1647.8 1613.81 1644.41 1592.46 1644.41 1567.72 C1644.41 1540.26
						 1649.83 1515.86 1660 1494.51 A143.484 143.484 0 0 1 1703.72 1441.3 C1722.7 1427.07 1745.06 1416.22 1770.48
						 1409.11 C1795.9 1401.99 1824.71 1398.26 1855.55 1398.26 C1895.54 1398.26 1933.16 1404.7 1969.76 1417.24
						 C2006.7 1430.12 2038.9 1446.72 2066.35 1467.06 L2013.82 1560.26 C1988.74 1541.96 1962.98 1528.4 1936.89
						 1519.93 C1911.13 1511.12 1883.68 1506.71 1852.84 1506.71 C1822.34 1506.71 1801.32 1512.13 1787.77 1522.98
						 A50.0527 50.0527 -180 0 0 1767.77 1563.65 A50.72 50.72 -180 0 0 1772.52 1585.68 C1775.57 1592.46 1781.33
						 1599.24 1790.14 1605.67 A200.211 200.211 -180 0 0 1825.05 1627.37 A692.728 692.728 -180 0 0 1882.32 1653.12
						 L1973.49 1691.42 A284.299 284.299 0 0 1 2039.24 1732.77 A146.154 146.154 0 0 1 2078.89 1786.65 C2087.7 1807.33
						 2092.11 1832.07 2092.11 1861.22 ZM2659.45 1718.19 C2659.45 1769.37 2652.33 1815.46 2638.1 1856.13 C2623.53
						 1896.8 2604.55 1931.03 2578.79 1959.16 A252.933 252.933 0 0 1 2489.99 2022.88 C2456.78 2037.79 2419.16 2044.91
						 2378.83 2044.91 C2338.5 2044.91 2302.91 2037.11 2269.7 2021.86 A255.602 255.602 0 0 1 2183.28 1956.11 C2158.88
						 1927.64 2139.9 1893.75 2126 1854.1 C2112.11 1814.78 2106.01 1770.39 2106.01 1721.58 C2106.01 1671.09 2113.12
						 1625.67 2127.36 1585.34 C2141.59 1545.01 2160.91 1511.12 2185.99 1482.99 A241.587 241.587 0 0 1 2273.43
						 1418.93 C2307.66 1404.36 2343.58 1397.24 2382.9 1397.24 A263.611 263.611 0 0 1 2493.05 1420.29 A264.278
						 264.278 0 0 1 2581.16 1484.68 C2606.24 1512.47 2625.56 1546.03 2639.46 1586.02 C2653.35 1626.01 2659.45
						 1670.07 2659.45 1718.19 ZM2536.09 1721.58 C2536.09 1657.53 2522.87 1607.03 2494.06 1569.41 C2465.59 1532.13
						 2427.3 1513.15 2377.48 1513.15 A126.133 126.133 -180 0 0 2268.01 1569.41 C2241.91 1607.03 2228.35 1656.51
						 2228.35 1718.19 C2228.35 1786.99 2242.59 1839.19 2271.06 1874.77 A136.143 136.143 -180 0 0 2383.58 1928.66
						 C2406.62 1928.66 2427.3 1923.24 2446.28 1912.39 A157.499 157.499 -180 0 0 2494.74 1867.99 A206.217 206.217
						 -180 0 0 2525.58 1802.24 C2532.7 1776.83 2536.43 1750.05 2536.43 1721.58 L2536.09 1721.58 ZM3052.25 1539.25
						 A206.217 206.217 -180 0 0 3010.9 1522.64 C2996.67 1518.91 2979.39 1516.2 2959.05 1516.2 C2920.08 1516.2
						 2890.25 1529.42 2868.9 1556.19 C2847.89 1583.31 2837.04 1622.96 2837.04 1675.83 L2837.04 2031.01 L2715.03
						 2031.01 L2715.03 1409.44 L2837.04 1409.44 L2837.04 1468.75 A170.179 170.179 0 0 1 2895.67 1417.24 A168.844
						 168.844 0 0 1 2979.05 1396.57 C3004.13 1396.57 3025.82 1398.6 3041.07 1403 A140.815 140.815 0 0 1 3084.11
						 1422.66 L3052.25 1538.57 L3052.25 1539.25 Z" class="st4"/>
		</g>
		<g id="shape5-9" v:mID="5" v:groupContext="shape" transform="translate(5199.88,-584.277)">
			<title>Sheet.5</title>
			<path d="M124.38 1325.05 L124.38 1541.62 L362.3 1541.62 L362.3 1663.63 L124.38 1663.63 L124.38 2031.69 L0 2031.69 L0
						 1203.05 L533.79 1203.05 L533.79 1325.05 L124.38 1325.05 ZM554.12 2031.69 L554.12 1232.53 L676.13 1168.82
						 L676.13 2032.03 L554.12 2031.69 ZM1299.05 1718.19 C1299.05 1769.37 1291.6 1815.46 1277.7 1856.13 C1263.47
						 1896.8 1243.47 1931.03 1218.39 1959.16 A252.933 252.933 0 0 1 1129.6 2022.88 C1095.37 2037.79 1058.43 2044.91
						 1018.1 2044.91 C978.78 2044.91 942.52 2037.11 909.3 2021.86 C876.09 2006.27 847.28 1984.24 822.88 1956.11
						 C798.48 1927.64 779.16 1893.75 765.6 1854.1 C751.71 1814.78 745.61 1770.39 745.61 1721.58 C745.61 1671.09
						 752.39 1625.67 766.96 1585.34 C781.19 1545.01 800.51 1511.12 825.25 1482.99 C850.33 1454.86 878.8 1433.51
						 913.03 1418.93 C947.26 1404.36 983.19 1397.24 1022.5 1397.24 C1061.81 1397.24 1098.42 1404.7 1132.65 1420.29
						 A264.278 264.278 0 0 1 1220.77 1484.68 C1245.84 1512.47 1265.16 1546.03 1278.72 1586.02 C1292.61 1626.01
						 1299.05 1670.07 1299.05 1718.19 ZM1175.69 1721.58 C1175.69 1657.53 1162.47 1607.03 1133.66 1569.41 C1105.2
						 1532.13 1066.9 1513.15 1017.08 1513.15 C970.65 1513.15 934.04 1531.79 907.61 1569.41 C881.17 1607.03 867.96
						 1656.51 867.96 1718.19 C867.96 1786.99 882.19 1839.19 910.66 1874.77 A136.143 136.143 -180 0 0 1023.18 1928.66
						 A122.128 122.128 -180 0 0 1085.88 1912.39 A157.499 157.499 -180 0 0 1134.34 1867.99 C1147.9 1849.35 1158.07
						 1827.32 1165.18 1802.24 C1172.3 1776.83 1175.69 1750.05 1175.69 1721.58 ZM1900.29 2031.69 L1796.24 2031.69
						 L1712.19 1718.19 L1693.89 1645.33 L1680.33 1585.68 L1666.44 1646.01 L1648.13 1719.55 L1565.44 2032.03 L1461.05
						 2032.03 L1290.58 1410.46 L1410.9 1410.46 L1484.1 1712.43 L1502.06 1786.99 L1514.94 1848.68 L1530.19 1786.99
						 L1549.17 1712.43 L1632.21 1410.46 L1730.49 1410.46 L1814.54 1713.45 L1832.84 1787.67 L1847.75 1848.68 L1861.31
						 1786.65 L1878.6 1712.43 L1951.8 1410.46 L2072.11 1410.46 L1900.29 2031.69 Z" class="st5"/>
		</g>
	</g>
</svg>
