<?xml version="1.0" encoding="UTF-8" standalone="no"?>
<!DOCTYPE svg PUBLIC "-//W3C//DTD SVG 1.1//EN" "http://www.w3.org/Graphics/SVG/1.1/DTD/svg11.dtd">
<!-- Generated by Microsoft Visio, SVG Export tensorflow.svg tensorflow -->
<svg xmlns="http://www.w3.org/2000/svg" xmlns:xlink="http://www.w3.org/1999/xlink" xmlns:ev="http://www.w3.org/2001/xml-events"
		xmlns:v="http://schemas.microsoft.com/visio/2003/SVGExtensions/" width="3.49323in" height="1.34344in"
		viewBox="0 0 251.513 96.7279" xml:space="preserve" color-interpolation-filters="sRGB" class="st6">
	<v:documentProperties v:langID="1033" v:viewMarkup="false"/>

	<style type="text/css">
	<![CDATA[
		.st1 {fill:#f6bd3a;stroke:none;stroke-linecap:butt;stroke-width:0.75}
		.st2 {fill:#eb8c23;stroke:none;stroke-linecap:butt;stroke-width:0.75}
		.st3 {fill:#e35a2b;stroke:none;stroke-linecap:butt;stroke-width:0.75}
		.st4 {fill:#ef6639;stroke:none;stroke-linecap:butt;stroke-width:0.75}
		.st5 {fill:#a6a7a9;stroke:none;stroke-linecap:butt;stroke-width:0.75}
		.st6 {fill:none;fill-rule:evenodd;font-size:12px;overflow:visible;stroke-linecap:square;stroke-miterlimit:3}
	]]>
	</style>

	<g v:mID="0" v:index="1" v:groupContext="foregroundPage">
		<title>tensorflow</title>
		<v:pageProperties v:drawingScale="1" v:pageScale="1" v:drawingUnits="19" v:shadowOffsetX="9" v:shadowOffsetY="-9"/>
		<g id="shape1-1" v:mID="1" v:groupContext="shape" transform="translate(18.75,-41.5507)">
			<title>Sheet.1</title>
			<path d="M23.99 92.19 L31.98 87.55 L39.86 92.19 L31.98 96.73 L23.99 92.29 L23.99 92.19 ZM0 78.47 L32 60.3 L55.79 73.82
						 L47.91 87.55 L32.02 78.46 L8.03 92.09 L0 78.47 Z" class="st1"/>
		</g>
		<g id="shape2-3" v:mID="2" v:groupContext="shape" transform="translate(26.7487,-18.75)">
			<title>Sheet.2</title>
			<path d="M15.99 87.55 L15.99 78.47 L23.87 73.93 L31.86 69.38 L31.86 78.47 L23.98 83.01 L23.98 92.09 L15.99 96.73 L15.99
						 87.55 ZM15.99 69.39 L7.99 64.85 L0 69.29 L0 60.2 L23.98 46.58 L23.98 64.75 L15.99 69.39 ZM39.78 60.21 L39.78
						 55.67 L47.77 51.03 L47.87 60.11 L39.88 64.75 L39.78 60.21 Z" class="st2"/>
		</g>
		<g id="shape3-5" v:mID="3" v:groupContext="shape" transform="translate(18.75,-18.75)">
			<title>Sheet.3</title>
			<path d="M15.99 91.89 L15.99 64.85 L23.87 60.4 L23.96 69.39 L31.96 73.83 L31.96 83.01 L23.96 78.76 L23.96 96.73 L15.99
						 91.89 ZM3.95 66.92 L0 64.55 L0 55.67 L7.99 60.21 L7.99 69.29 L3.95 66.92 ZM31.98 55.67 L31.98 46.58 L47.78
						 55.67 L47.87 64.75 L31.98 55.67 Z" class="st3"/>
		</g>
		<g id="shape4-7" v:mID="4" v:groupContext="shape" transform="translate(79.187,-35.4385)">
			<title>Sheet.4</title>
			<path d="M10.8 75.49 L10.8 96.36 L7.13 96.36 L7.13 75.49 L0 75.49 L0 71.89 L17.92 71.89 L17.92 75.49 L10.8 75.49 ZM30.06
						 83.07 A10.3183 10.3183 0 0 1 30.36 85.85 L18.53 89.36 C18.62 90.24 18.59 89.88 18.87 90.51 C19.15 91.14
						 19.5 91.66 19.92 92.09 C20.34 92.52 20.8 92.8 21.3 92.99 C21.79 93.19 22.35 93.29 22.9 93.29 C23.69 93.29
						 24.38 93.16 25.02 92.91 A7.85689 7.85689 -180 0 0 26.88 91.82 L29.02 94.13 A8.68393 8.68393 0 0 1 26.29
						 95.91 C25.29 96.33 24.09 96.54 22.69 96.54 A7.6009 7.6009 0 0 1 19.64 95.91 C18.65 95.49 17.82 94.87 17.1
						 94.06 C16.38 93.24 15.81 92.24 15.39 91.05 C14.97 89.87 14.76 88.49 14.76 87 C14.76 85.44 14.96 84.05 15.36
						 82.88 C15.75 81.71 16.3 80.71 17 79.89 A6.85262 6.85262 0 0 1 19.53 78.06 A8.2901 8.2901 0 0 1 22.8 77.43
						 C24.1 77.43 25.24 77.68 26.2 78.17 C27.17 78.66 27.98 79.32 28.61 80.14 A8.54609 8.54609 0 0 1 30.05 83.09
						 L30.06 83.07 ZM26.62 83.9 C26.58 83.27 26.14 82.52 25.79 82.02 A3.07186 3.07186 -180 0 0 24.48 81.03 C23.94
						 80.81 23.21 80.72 22.57 80.75 C21.39 80.8 20.01 81.22 19.36 82.13 C18.7 83.04 18.5 84.62 18.52 86.3 L26.62
						 83.9 ZM43.36 96.14 L43.36 85.76 C43.36 83.9 43.02 82.61 42.36 81.85 C41.7 81.08 40.77 80.73 39.6 80.73 C38.39
						 80.73 37.46 81.13 36.81 81.95 C36.15 82.76 35.83 83.92 35.83 85.41 L35.83 96.13 L32.21 96.13 L32.21 77.8
						 L35.81 77.8 L35.81 79.54 C36.28 78.87 36.92 78.36 37.75 77.97 C38.58 77.58 39.47 77.41 40.42 77.41 C42.56
						 77.41 44.19 78.1 45.29 79.47 C46.4 80.85 46.95 82.9 46.95 85.62 L46.95 96.14 L43.36 96.14 L43.36 96.14 ZM61.73
						 91.31 C61.73 92.34 61.54 93.2 61.16 93.88 A4.72595 4.72595 0 0 1 59.64 95.54 C59.01 95.96 58.26 96.27 57.47
						 96.45 A11.8149 11.8149 0 0 1 54.87 96.73 C53.61 96.73 52.36 96.51 51.11 96.06 A12.8585 12.8585 0 0 1 47.84
						 94.39 L49.47 91.68 A10.1805 10.1805 -180 0 0 52.14 93.04 C53.06 93.35 53.95 93.5 54.81 93.5 C57.05 93.5
						 58.16 92.82 58.16 91.47 C58.16 90.77 57.79 90.21 57.03 89.79 C56.27 89.38 55.23 88.91 53.9 88.42 A18.9038
						 18.9038 0 0 1 51.41 87.28 C50.72 86.9 50.16 86.48 49.73 86.04 A3.93829 3.93829 0 0 1 48.8 84.56 C48.62 84.01
						 48.52 83.38 48.52 82.65 C48.52 81.84 48.68 81.12 48.98 80.49 A4.23366 4.23366 0 0 1 50.27 78.92 C50.83 78.5
						 51.49 78.18 52.24 77.97 C52.99 77.76 53.84 77.65 54.75 77.65 C55.93 77.65 57.04 77.84 58.12 78.21 C59.21
						 78.59 60.16 79.08 60.97 79.68 L59.42 82.43 C58.68 81.89 57.92 81.49 57.15 81.24 C56.39 80.98 55.58 80.85
						 54.67 80.85 C53.77 80.85 53.15 81.01 52.75 81.33 A1.47686 1.47686 -180 0 0 52.16 82.53 A1.49655 1.49655
						 -180 0 0 52.3 83.18 C52.39 83.38 52.56 83.58 52.82 83.77 A5.90743 5.90743 -180 0 0 53.85 84.41 A20.4397
						 20.4397 -180 0 0 55.54 85.17 L58.23 86.3 A8.38855 8.38855 0 0 1 60.17 87.52 A4.31243 4.31243 0 0 1 61.34
						 89.11 C61.6 89.72 61.73 90.45 61.73 91.31 L61.73 91.31 ZM78.47 87.09 C78.47 88.6 78.26 89.96 77.84 91.16
						 C77.41 92.36 76.85 93.37 76.09 94.2 A7.46306 7.46306 0 0 1 73.47 96.08 C72.49 96.52 71.38 96.73 70.19 96.73
						 C69 96.73 67.95 96.5 66.97 96.05 A7.54182 7.54182 0 0 1 64.42 94.11 C63.7 93.27 63.14 92.27 62.73 91.1 C62.32
						 89.94 62.14 88.63 62.14 87.19 C62.14 85.7 62.35 84.36 62.77 83.17 C63.19 81.98 63.76 80.98 64.5 80.15 A7.1283
						 7.1283 0 0 1 67.08 78.26 C68.09 77.83 69.15 77.62 70.31 77.62 A7.77812 7.77812 0 0 1 73.56 78.3 A7.79781
						 7.79781 0 0 1 76.16 80.2 C76.9 81.02 77.47 82.01 77.88 83.19 C78.29 84.37 78.47 85.67 78.47 87.09 L78.47
						 87.09 ZM74.83 87.19 C74.83 85.3 74.44 83.81 73.59 82.7 C72.75 81.6 71.62 81.04 70.15 81.04 A3.72168 3.72168
						 -180 0 0 66.92 82.7 C66.15 83.81 65.75 85.27 65.75 87.09 C65.75 89.12 66.17 90.66 67.01 91.71 A4.01705 4.01705
						 -180 0 0 70.33 93.3 C71.01 93.3 71.62 93.14 72.18 92.82 A4.64718 4.64718 -180 0 0 73.61 91.51 A6.08466 6.08466
						 -180 0 0 74.52 89.57 C74.73 88.82 74.84 88.03 74.84 87.19 L74.83 87.19 ZM90.06 81.81 A6.08466 6.08466 -180
						 0 0 88.84 81.32 C88.42 81.21 87.91 81.13 87.31 81.13 C86.16 81.13 85.28 81.52 84.65 82.31 C84.03 83.11 83.71
						 84.28 83.71 85.84 L83.71 96.32 L80.11 96.32 L80.11 77.98 L83.71 77.98 L83.71 79.73 A5.02132 5.02132 0 0
						 1 85.44 78.21 A4.98193 4.98193 0 0 1 87.9 77.6 C88.64 77.6 89.28 77.66 89.73 77.79 A4.15489 4.15489 0 0
						 1 91 78.37 L90.06 81.79 L90.06 81.81 Z" class="st4"/>
		</g>
		<g id="shape5-9" v:mID="5" v:groupContext="shape" transform="translate(171.625,-35.4365)">
			<title>Sheet.5</title>
			<path d="M3.67 75.49 L3.67 81.88 L10.69 81.88 L10.69 85.48 L3.67 85.48 L3.67 96.34 L0 96.34 L0 71.89 L15.75 71.89 L15.75
						 75.49 L3.67 75.49 ZM16.35 96.34 L16.35 72.76 L19.95 70.88 L19.95 96.35 L16.35 96.34 ZM38.33 87.09 C38.33
						 88.6 38.11 89.96 37.7 91.16 C37.28 92.36 36.69 93.37 35.95 94.2 A7.46306 7.46306 0 0 1 33.33 96.08 C32.32
						 96.52 31.23 96.73 30.04 96.73 C28.88 96.73 27.81 96.5 26.83 96.05 C25.85 95.59 25 94.94 24.28 94.11 C23.56
						 93.27 22.99 92.27 22.59 91.1 C22.18 89.94 22 88.63 22 87.19 C22 85.7 22.2 84.36 22.63 83.17 C23.05 81.98
						 23.62 80.98 24.35 80.15 C25.09 79.32 25.93 78.69 26.94 78.26 C27.95 77.83 29.01 77.62 30.17 77.62 C31.33
						 77.62 32.41 77.84 33.42 78.3 A7.79781 7.79781 0 0 1 36.02 80.2 C36.76 81.02 37.33 82.01 37.73 83.19 C38.14
						 84.37 38.33 85.67 38.33 87.09 L38.33 87.09 ZM34.69 87.19 C34.69 85.3 34.3 83.81 33.45 82.7 C32.61 81.6 31.48
						 81.04 30.01 81.04 C28.64 81.04 27.56 81.59 26.78 82.7 C26 83.81 25.61 85.27 25.61 87.09 C25.61 89.12 26.03
						 90.66 26.87 91.71 A4.01705 4.01705 -180 0 0 30.19 93.3 A3.60353 3.60353 -180 0 0 32.04 92.82 A4.64718 4.64718
						 -180 0 0 33.47 91.51 C33.87 90.96 34.17 90.31 34.38 89.57 C34.59 88.82 34.69 88.03 34.69 87.19 L34.69 87.19
						 ZM56.07 96.34 L53 96.34 L50.52 87.09 L49.98 84.94 L49.58 83.18 L49.17 84.96 L48.63 87.13 L46.19 96.35 L43.11
						 96.35 L38.08 78.01 L41.63 78.01 L43.79 86.92 L44.32 89.12 L44.7 90.94 L45.15 89.12 L45.71 86.92 L48.16 78.01
						 L51.06 78.01 L53.54 86.95 L54.08 89.14 L54.52 90.94 L54.92 89.11 L55.43 86.92 L57.59 78.01 L61.14 78.01
						 L56.07 96.34 Z" class="st5"/>
		</g>
	</g>
</svg>
