<?xml version="1.0" encoding="UTF-8" standalone="no"?>
<!DOCTYPE svg PUBLIC "-//W3C//DTD SVG 1.1//EN" "http://www.w3.org/Graphics/SVG/1.1/DTD/svg11.dtd">
<!-- Generated by Microsoft Visio, SVG Export tensorflow.svg tensorflow -->
<svg xmlns="http://www.w3.org/2000/svg" xmlns:xlink="http://www.w3.org/1999/xlink" xmlns:ev="http://www.w3.org/2001/xml-events"
		xmlns:v="http://schemas.microsoft.com/visio/2003/SVGExtensions/" width="72.8115in" height="44.2007in"
		viewBox="0 0 5242.43 3182.45" xml:space="preserve" color-interpolation-filters="sRGB" class="st6">
	<v:documentProperties v:langID="1033"/>

	<style type="text/css">
	<![CDATA[
		.st1 {fill:#ef6639;stroke:none;stroke-linecap:butt;stroke-width:0.749995}
		.st2 {fill:#a6a7a9;stroke:none;stroke-linecap:butt;stroke-width:0.749995}
		.st3 {fill:#f6bd3a;stroke:none;stroke-linecap:butt;stroke-width:0.749995}
		.st4 {fill:#eb8c23;stroke:none;stroke-linecap:butt;stroke-width:0.749995}
		.st5 {fill:#e35a2b;stroke:none;stroke-linecap:butt;stroke-width:0.749995}
		.st6 {fill:none;fill-rule:evenodd;font-size:12px;overflow:visible;stroke-linecap:square;stroke-miterlimit:3}
	]]>
	</style>

	<g v:mID="0" v:index="1" v:groupContext="foregroundPage">
		<title>tensorflow</title>
		<v:pageProperties v:drawingScale="1" v:pageScale="1" v:drawingUnits="19" v:shadowOffsetX="8.99994"
				v:shadowOffsetY="-8.99994"/>
		<v:layer v:name="Connector" v:index="0"/>
		<g id="shape4-1" v:mID="4" v:groupContext="shape" transform="translate(18.75,-18.818)">
			<title>Sheet.4</title>
			<path d="M366.03 2462.59 L366.03 3169.91 L241.65 3169.91 L241.65 2462.59 L0 2462.59 L0 2340.59 L607.33 2340.59 L607.33
						 2462.59 L366.03 2462.59 ZM1018.77 2719.49 A349.7 349.7 0 0 1 1028.94 2813.71 L628.01 2932.67 C631.06 2962.49
						 630.04 2950.29 639.53 2971.64 C649.02 2992.99 660.88 3010.62 675.11 3025.19 C689.35 3039.76 704.94 3049.25
						 721.89 3055.69 C738.49 3062.47 757.47 3065.86 776.11 3065.86 C802.89 3065.86 826.27 3061.45 847.96 3052.98
						 A266.279 266.279 -180 0 0 911 3016.04 L983.53 3094.33 A294.309 294.309 0 0 1 891 3154.66 C857.11 3168.89
						 816.44 3176.01 768.99 3176.01 A257.603 257.603 0 0 1 665.63 3154.66 C632.07 3140.42 603.94 3119.41 579.54
						 3091.96 C555.14 3064.17 535.82 3030.27 521.59 2989.94 C507.35 2949.95 500.24 2903.18 500.24 2852.68 C500.24
						 2799.81 507.01 2752.7 520.57 2713.05 C533.79 2673.4 552.43 2639.51 576.15 2611.72 A232.243 232.243 0 0 1
						 661.9 2549.7 A280.961 280.961 0 0 1 772.72 2528.34 C816.78 2528.34 855.42 2536.82 887.95 2553.42 C920.83
						 2570.03 948.28 2592.4 969.63 2620.19 A289.637 289.637 0 0 1 1018.43 2720.17 L1018.77 2719.49 ZM902.19 2747.62
						 C900.83 2726.27 885.92 2700.85 874.06 2683.91 A104.109 104.109 -180 0 0 829.66 2650.35 C811.36 2642.9 786.62
						 2639.85 764.93 2640.86 C724.94 2642.56 678.17 2656.79 656.14 2687.63 C633.77 2718.47 626.99 2772.02 627.67
						 2828.96 L902.19 2747.62 ZM1469.52 3162.45 L1469.52 2810.66 C1469.52 2747.62 1457.99 2703.9 1435.63 2678.14
						 C1413.26 2652.05 1381.74 2640.19 1342.09 2640.19 C1301.08 2640.19 1269.56 2653.74 1247.53 2681.53 C1225.16
						 2708.98 1214.33 2748.3 1214.33 2798.8 L1214.33 3162.11 L1091.64 3162.11 L1091.64 2540.88 L1213.65 2540.88
						 L1213.65 2599.85 C1229.57 2577.15 1251.26 2559.86 1279.39 2546.65 C1307.52 2533.43 1337.68 2527.67 1369.88
						 2527.67 C1442.4 2527.67 1497.65 2551.05 1534.93 2597.48 C1572.55 2644.25 1591.19 2713.73 1591.19 2805.91
						 L1591.19 3162.45 L1469.52 3162.45 ZM2092.1 2998.76 C2092.1 3033.66 2085.66 3062.81 2072.78 3085.86 A160.168
						 160.168 0 0 1 2021.27 3142.12 C1999.92 3156.35 1974.5 3166.86 1947.72 3172.96 A400.42 400.42 0 0 1 1859.61
						 3182.45 C1816.9 3182.45 1774.54 3174.99 1732.18 3159.74 A435.789 435.789 0 0 1 1621.35 3103.14 L1676.59
						 3011.3 A345.03 345.03 -180 0 0 1767.08 3057.39 C1798.26 3067.89 1828.43 3072.98 1857.57 3072.98 C1933.49
						 3072.98 1971.11 3049.93 1971.11 3004.18 C1971.11 2980.45 1958.57 2961.47 1932.81 2947.24 C1907.05 2933.35
						 1871.81 2917.42 1826.73 2900.81 A640.672 640.672 0 0 1 1742.34 2862.17 C1718.96 2849.29 1699.98 2835.06
						 1685.41 2820.15 A133.473 133.473 0 0 1 1653.89 2769.99 C1647.79 2751.35 1644.4 2730 1644.4 2705.26 C1644.4
						 2677.8 1649.82 2653.4 1659.99 2632.05 A143.483 143.483 0 0 1 1703.71 2578.84 C1722.69 2564.61 1745.05 2553.76
						 1770.47 2546.65 C1795.89 2539.53 1824.7 2535.8 1855.54 2535.8 C1895.53 2535.8 1933.15 2542.24 1969.75 2554.78
						 C2006.69 2567.66 2038.89 2584.26 2066.34 2604.6 L2013.81 2697.8 C1988.73 2679.5 1962.97 2665.94 1936.88
						 2657.47 C1911.12 2648.66 1883.67 2644.25 1852.83 2644.25 C1822.33 2644.25 1801.31 2649.67 1787.76 2660.52
						 A50.0525 50.0525 -180 0 0 1767.76 2701.19 A50.7198 50.7198 -180 0 0 1772.51 2723.22 C1775.56 2730 1781.32
						 2736.78 1790.13 2743.21 A200.21 200.21 -180 0 0 1825.04 2764.91 A692.725 692.725 -180 0 0 1882.31 2790.66
						 L1973.48 2828.96 A284.298 284.298 0 0 1 2039.23 2870.31 A146.153 146.153 0 0 1 2078.88 2924.19 C2087.69
						 2944.87 2092.1 2969.61 2092.1 2998.76 ZM2659.44 2855.73 C2659.44 2906.91 2652.32 2953 2638.09 2993.67 C2623.52
						 3034.34 2604.54 3068.57 2578.78 3096.7 A252.932 252.932 0 0 1 2489.98 3160.42 C2456.77 3175.33 2419.15 3182.45
						 2378.82 3182.45 C2338.49 3182.45 2302.9 3174.65 2269.69 3159.4 A255.601 255.601 0 0 1 2183.27 3093.65 C2158.87
						 3065.18 2139.89 3031.29 2125.99 2991.64 C2112.1 2952.32 2106 2907.93 2106 2859.12 C2106 2808.63 2113.11
						 2763.21 2127.35 2722.88 C2141.58 2682.55 2160.9 2648.66 2185.98 2620.53 A241.586 241.586 0 0 1 2273.42 2556.47
						 C2307.65 2541.9 2343.57 2534.78 2382.89 2534.78 A263.61 263.61 0 0 1 2493.04 2557.83 A264.277 264.277 0
						 0 1 2581.15 2622.22 C2606.23 2650.01 2625.55 2683.57 2639.45 2723.56 C2653.34 2763.55 2659.44 2807.61 2659.44
						 2855.73 ZM2536.08 2859.12 C2536.08 2795.07 2522.86 2744.57 2494.05 2706.95 C2465.58 2669.67 2427.29 2650.69
						 2377.47 2650.69 A126.132 126.132 -180 0 0 2268 2706.95 C2241.9 2744.57 2228.34 2794.05 2228.34 2855.73 C2228.34
						 2924.53 2242.58 2976.73 2271.05 3012.31 A136.142 136.142 -180 0 0 2383.57 3066.2 C2406.61 3066.2 2427.29
						 3060.78 2446.27 3049.93 A157.498 157.498 -180 0 0 2494.73 3005.53 A206.216 206.216 -180 0 0 2525.57 2939.78
						 C2532.69 2914.37 2536.42 2887.59 2536.42 2859.12 L2536.08 2859.12 ZM3052.24 2676.79 A206.216 206.216 -180
						 0 0 3010.89 2660.18 C2996.66 2656.45 2979.38 2653.74 2959.04 2653.74 C2920.07 2653.74 2890.24 2666.96 2868.89
						 2693.73 C2847.88 2720.85 2837.03 2760.5 2837.03 2813.37 L2837.03 3168.55 L2715.02 3168.55 L2715.02 2546.98
						 L2837.03 2546.98 L2837.03 2606.29 A170.178 170.178 0 0 1 2895.66 2554.78 A168.843 168.843 0 0 1 2979.04
						 2534.11 C3004.12 2534.11 3025.81 2536.14 3041.06 2540.54 A140.814 140.814 0 0 1 3084.1 2560.2 L3052.24 2676.11
						 L3052.24 2676.79 Z" class="st1"/>
		</g>
		<g id="shape5-3" v:mID="5" v:groupContext="shape" transform="translate(3151.58,-18.75)">
			<title>Sheet.5</title>
			<path d="M124.38 2462.59 L124.38 2679.16 L362.3 2679.16 L362.3 2801.17 L124.38 2801.17 L124.38 3169.23 L0 3169.23 L0
						 2340.59 L533.79 2340.59 L533.79 2462.59 L124.38 2462.59 ZM554.12 3169.23 L554.12 2370.07 L676.13 2306.36
						 L676.13 3169.57 L554.12 3169.23 ZM1299.04 2855.73 C1299.04 2906.91 1291.59 2953 1277.69 2993.67 C1263.46
						 3034.34 1243.46 3068.57 1218.38 3096.7 A252.932 252.932 0 0 1 1129.6 3160.42 C1095.37 3175.33 1058.43 3182.45
						 1018.1 3182.45 C978.78 3182.45 942.52 3174.65 909.3 3159.4 C876.09 3143.81 847.28 3121.78 822.88 3093.65
						 C798.48 3065.18 779.16 3031.29 765.6 2991.64 C751.71 2952.32 745.61 2907.93 745.61 2859.12 C745.61 2808.63
						 752.39 2763.21 766.96 2722.88 C781.19 2682.55 800.51 2648.66 825.25 2620.53 C850.33 2592.4 878.8 2571.05
						 913.03 2556.47 C947.26 2541.9 983.19 2534.78 1022.5 2534.78 C1061.81 2534.78 1098.42 2542.24 1132.65 2557.83
						 A264.277 264.277 0 0 1 1220.76 2622.22 C1245.83 2650.01 1265.15 2683.57 1278.71 2723.56 C1292.6 2763.55
						 1299.04 2807.61 1299.04 2855.73 ZM1175.69 2859.12 C1175.69 2795.07 1162.47 2744.57 1133.66 2706.95 C1105.2
						 2669.67 1066.9 2650.69 1017.08 2650.69 C970.65 2650.69 934.04 2669.33 907.61 2706.95 C881.17 2744.57 867.96
						 2794.05 867.96 2855.73 C867.96 2924.53 882.19 2976.73 910.66 3012.31 A136.142 136.142 -180 0 0 1023.18 3066.2
						 A122.127 122.127 -180 0 0 1085.88 3049.93 A157.498 157.498 -180 0 0 1134.34 3005.53 C1147.9 2986.89 1158.07
						 2964.86 1165.18 2939.78 C1172.3 2914.37 1175.69 2887.59 1175.69 2859.12 ZM1900.28 3169.23 L1796.23 3169.23
						 L1712.18 2855.73 L1693.88 2782.87 L1680.32 2723.22 L1666.43 2783.55 L1648.12 2857.09 L1565.43 3169.57 L1461.04
						 3169.57 L1290.57 2548 L1410.89 2548 L1484.09 2849.97 L1502.05 2924.53 L1514.93 2986.22 L1530.18 2924.53
						 L1549.16 2849.97 L1632.2 2548 L1730.48 2548 L1814.53 2850.99 L1832.83 2925.21 L1847.74 2986.22 L1861.3 2924.19
						 L1878.59 2849.97 L1951.79 2548 L2072.1 2548 L1900.28 3169.23 Z" class="st2"/>
		</g>
		<g id="group7-5" transform="translate(1798.27,-1156.3)" v:mID="7" v:groupContext="group">
			<title>Sheet.7</title>
			<g id="shape1-6" v:mID="1" v:groupContext="shape" transform="translate(0,-772.743)">
				<title>Sheet.1</title>
				<path d="M813.05 3028.58 L1083.84 2871.32 L1350.9 3028.58 L1083.84 3182.45 L813.05 3031.97 L813.05 3028.58 ZM0 2563.59
							 L1084.52 1947.79 L1890.79 2406 L1623.72 2871.32 L1085.2 2563.25 L272.15 3025.19 L0 2563.59 Z"
						class="st3"/>
			</g>
			<g id="shape2-8" v:mID="2" v:groupContext="shape" transform="translate(271.085,0)">
				<title>Sheet.2</title>
				<path d="M541.92 2871.32 L541.92 2563.59 L808.99 2409.72 L1079.78 2255.52 L1079.78 2563.59 L812.71 2717.46 L812.71
							 3025.19 L541.92 3182.45 L541.92 2871.32 ZM541.92 2255.86 L270.79 2101.99 L0 2252.47 L0 1944.4 L812.71
							 1482.81 L812.71 2098.6 L541.92 2255.86 ZM1348.19 1944.74 L1348.19 1790.87 L1618.98 1633.62 L1622.37
							 1941.35 L1351.58 2098.6 L1348.19 1944.74 Z" class="st4"/>
			</g>
			<g id="shape3-10" v:mID="3" v:groupContext="shape">
				<title>Sheet.3</title>
				<path d="M541.92 3018.41 L541.92 2101.99 L808.99 1951.17 L812.04 2255.86 L1083.17 2406.34 L1083.17 2717.46 L812.04
							 2573.42 L812.04 3182.45 L541.92 3018.41 ZM133.87 2172.15 L0 2091.82 L0 1790.87 L270.79 1944.74 L270.79
							 2252.47 L133.87 2172.15 ZM1083.84 1790.87 L1083.84 1482.81 L1619.32 1790.87 L1622.37 2098.6 L1083.84
							 1790.87 Z" class="st5"/>
			</g>
		</g>
	</g>
</svg>
