<?xml version="1.0" encoding="UTF-8" standalone="no"?>
<!DOCTYPE svg PUBLIC "-//W3C//DTD SVG 1.1//EN" "http://www.w3.org/Graphics/SVG/1.1/DTD/svg11.dtd">
<!-- Generated by Microsoft Visio, SVG Export tensorflow.svg tensorflow -->
<svg xmlns="http://www.w3.org/2000/svg" xmlns:xlink="http://www.w3.org/1999/xlink" xmlns:ev="http://www.w3.org/2001/xml-events"
		xmlns:v="http://schemas.microsoft.com/visio/2003/SVGExtensions/" width="26.8188in" height="28.4014in"
		viewBox="0 0 1930.95 2044.9" xml:space="preserve" color-interpolation-filters="sRGB" class="st4">
	<v:documentProperties v:langID="1033"/>

	<style type="text/css">
	<![CDATA[
		.st1 {fill:#f6bd3a;stroke:none;stroke-linecap:butt;stroke-width:0.749995}
		.st2 {fill:#eb8c23;stroke:none;stroke-linecap:butt;stroke-width:0.749995}
		.st3 {fill:#e35a2b;stroke:none;stroke-linecap:butt;stroke-width:0.749995}
		.st4 {fill:none;fill-rule:evenodd;font-size:12px;overflow:visible;stroke-linecap:square;stroke-miterlimit:3}
	]]>
	</style>

	<g v:mID="0" v:index="1" v:groupContext="foregroundPage">
		<title>tensorflow</title>
		<v:pageProperties v:drawingScale="1" v:pageScale="1" v:drawingUnits="19" v:shadowOffsetX="8.99994"
				v:shadowOffsetY="-8.99994"/>
		<v:layer v:name="Connector" v:index="0"/>
		<g id="group3-1" transform="translate(18.75,-18.75)" v:mID="3" v:groupContext="group">
			<title>Sheet.3</title>
			<g id="shape4-2" v:mID="4" v:groupContext="shape" transform="translate(-1.40687E-12,-772.743)">
				<title>Sheet.4</title>
				<path d="M813.05 1891.03 L1083.84 1733.77 L1350.9 1891.03 L1083.84 2044.9 L813.05 1894.42 L813.05 1891.03 ZM0 1426.04
							 L1084.52 810.24 L1890.79 1268.45 L1623.72 1733.77 L1085.2 1425.7 L272.15 1887.64 L0 1426.04 Z"
						class="st1"/>
			</g>
			<g id="shape5-4" v:mID="5" v:groupContext="shape" transform="translate(271.085,7.27596E-12)">
				<title>Sheet.5</title>
				<path d="M541.92 1733.77 L541.92 1426.04 L808.99 1272.17 L1079.78 1117.97 L1079.78 1426.04 L812.71 1579.91 L812.71
							 1887.64 L541.92 2044.9 L541.92 1733.77 ZM541.92 1118.31 L270.79 964.44 L0 1114.92 L0 806.85 L812.71
							 345.26 L812.71 961.05 L541.92 1118.31 ZM1348.19 807.19 L1348.19 653.32 L1618.98 496.07 L1622.37 803.8
							 L1351.58 961.05 L1348.19 807.19 Z" class="st2"/>
			</g>
			<g id="shape6-6" v:mID="6" v:groupContext="shape">
				<title>Sheet.6</title>
				<path d="M541.92 1880.86 L541.92 964.44 L808.99 813.62 L812.04 1118.31 L1083.17 1268.79 L1083.17 1579.91 L812.04
							 1435.87 L812.04 2044.9 L541.92 1880.86 ZM133.87 1034.6 L0 954.27 L0 653.32 L270.79 807.19 L270.79 1114.92
							 L133.87 1034.6 ZM1083.84 653.32 L1083.84 345.26 L1619.32 653.32 L1622.37 961.05 L1083.84 653.32 Z"
						class="st3"/>
			</g>
		</g>
	</g>
</svg>
