<?xml version="1.0" encoding="UTF-8" standalone="no"?>
<svg
   xmlns:dc="http://purl.org/dc/elements/1.1/"
   xmlns:cc="http://creativecommons.org/ns#"
   xmlns:rdf="http://www.w3.org/1999/02/22-rdf-syntax-ns#"
   xmlns:svg="http://www.w3.org/2000/svg"
   xmlns="http://www.w3.org/2000/svg"
   viewBox="0 0 123.98114 124.00388"
   height="124.00388"
   width="123.98114"
   xml:space="preserve"
   id="svg2"
   version="1.1"><metadata
     id="metadata8"><rdf:RDF><cc:Work
         rdf:about=""><dc:format>image/svg+xml</dc:format><dc:type
           rdf:resource="http://purl.org/dc/dcmitype/StillImage" /></cc:Work></rdf:RDF></metadata><defs
     id="defs6"><clipPath
       id="clipPath14"
       clipPathUnits="userSpaceOnUse"><path
         id="path12"
         d="M 0,0 H 397.144 V 147.322 H 0 Z" /></clipPath><clipPath
       id="clipPath22"
       clipPathUnits="userSpaceOnUse"><path
         id="path20"
         d="M 0,147.322 H 397.144 V 0 H 0 Z" /></clipPath></defs><g
     clip-path="url(#clipPath14)"
     transform="matrix(1.3333333,0,0,-1.3333333,-49.412781,149.88295)"
     id="g10"><g
       id="g16"><g
         clip-path="url(#clipPath22)"
         id="g18"><g
           transform="translate(78.2265,99.7357)"
           id="g24"><path
             id="path26"
             style="fill:#000000;fill-opacity:1;fill-rule:nonzero;stroke:none"
             d="m 0,0 c 0.17,0.803 0.299,1.707 0.299,2.667 0,0.962 -0.134,1.92 -0.4,2.857 C 0.79,4.684 1.333,3.739 1.516,2.707 L 1.518,2.7 C 1.373,1.894 0.771,0.992 0,0 m 9.942,-11.096 c -1.459,0.593 -3.146,0.906 -4.898,0.908 -0.692,-0.002 -1.379,-0.052 -2.042,-0.149 -0.424,0.943 -0.639,1.865 -0.639,2.743 0,2.173 1.225,4.047 2.478,5.781 0.404,0.563 0.847,1.131 1.277,1.68 L 6.573,0.453 C 6.926,0.912 7.283,1.379 7.621,1.854 7.816,2.128 8.008,2.407 8.189,2.691 8.42,3.049 8.626,3.398 8.821,3.76 9.089,4.258 9.311,4.744 9.489,5.229 9.7,4.319 9.807,3.405 9.807,2.501 9.807,2.167 9.794,1.86 9.77,1.564 9.735,1.082 9.643,0.613 9.484,0.092 9.383,-0.243 9.26,-0.58 9.105,-0.939 8.907,-1.397 8.672,-1.835 8.49,-2.165 8.313,-2.489 8.127,-2.802 7.94,-3.11 7.761,-3.41 7.581,-3.696 7.407,-3.973 6.706,-5.088 6.102,-6.052 6.067,-7.028 c 0,-0.144 0.015,-0.275 0.047,-0.413 0.133,-0.507 0.312,-1.186 1.161,-1.288 0.481,0.015 0.806,0.244 1.02,0.677 0.135,0.286 0.202,0.608 0.202,0.96 0,0.457 -0.111,0.937 -0.324,1.399 0.306,0.541 0.709,1.178 1.098,1.796 0.224,0.368 0.473,0.787 0.716,1.242 0.901,-1.635 1.357,-3.162 1.355,-4.547 -0.006,-1.414 -0.464,-2.69 -1.4,-3.894 m -10.082,-0.12 c -0.591,0.713 -1.563,2.214 -1.561,4.348 0,0.291 0.017,0.577 0.052,0.854 0.183,1.584 1.233,3.011 2.384,4.455 l 0.233,0.297 C 2.011,0.064 3.09,1.436 3.109,3.082 3.11,3.275 3.098,3.436 3.071,3.59 2.985,4.214 2.943,4.767 2.943,5.271 2.956,6.974 3.404,8.318 4.342,9.429 4.335,9.305 4.333,9.185 4.335,9.067 4.346,6.754 5.452,4.567 6.458,2.889 5.973,2.191 5.444,1.512 4.888,0.796 4.447,0.23 4.003,-0.342 3.576,-0.929 2.178,-2.875 0.813,-4.992 0.811,-7.594 c 0,-0.987 0.217,-2.016 0.646,-3.064 -0.555,-0.149 -1.089,-0.336 -1.597,-0.558 m 22.585,-2.777 c -0.051,0.143 -0.113,0.284 -0.183,0.422 -0.258,0.508 -0.632,0.955 -1.092,1.305 l 6.298,16.248 c 0.136,0.019 0.274,0.029 0.413,0.029 1.006,0 1.997,-0.48 2.72,-1.318 0.595,-0.687 0.943,-1.542 0.986,-2.419 z M -21.5,0.274 c 0.043,0.873 0.392,1.729 0.988,2.419 0.724,0.837 1.717,1.316 2.725,1.316 0.137,0 0.274,-0.009 0.409,-0.027 l 6.299,-16.247 c -0.457,-0.348 -0.832,-0.795 -1.095,-1.304 -0.07,-0.14 -0.132,-0.282 -0.183,-0.426 z m 45.235,-17.449 c -0.339,0.256 -0.714,0.458 -1.108,0.597 l 10.05,15.69 c 1.04,-0.127 1.999,-0.778 2.591,-1.769 0.568,-0.95 0.723,-2.067 0.429,-3.078 z m -49.339,11.437 c -0.301,1.01 -0.148,2.128 0.425,3.08 0.595,0.992 1.553,1.643 2.591,1.77 l 10.054,-15.689 c -0.396,-0.138 -0.768,-0.338 -1.112,-0.598 z m -3.341,-6.506 c -0.478,0.987 -0.477,2.202 0.008,3.269 0.477,1.04 1.356,1.787 2.372,2.026 l 11.89,-11.367 c -0.035,-0.051 -0.069,-0.104 -0.099,-0.163 -0.275,-0.532 -0.414,-1.105 -0.414,-1.707 0,-0.008 0.001,-0.016 0.001,-0.024 z m 54.221,-7.94 c 0,0.596 -0.138,1.169 -0.41,1.705 -0.03,0.059 -0.064,0.111 -0.099,0.162 l 11.885,11.368 c 1.017,-0.233 1.895,-0.98 2.37,-2.026 0.486,-1.059 0.49,-2.273 0.015,-3.27 l -13.762,-7.969 c 0,0.01 0.001,0.02 0.001,0.03 m 0.103,-3.392 c -0.18,0.457 -0.437,0.87 -0.757,1.217 l 15.238,8.82 c 0.83,-0.408 1.472,-1.187 1.775,-2.158 0.353,-1.135 0.19,-2.355 -0.436,-3.289 z m -56.489,4.59 c -0.625,0.935 -0.787,2.155 -0.433,3.288 0.3,0.972 0.942,1.75 1.773,2.159 l 15.239,-8.822 c -0.321,-0.343 -0.578,-0.755 -0.759,-1.215 z m 56.266,-7.842 c 0.309,0.533 0.479,1.125 0.5,1.744 l 15.702,4.558 c 0.745,-0.612 1.189,-1.628 1.198,-2.753 0.002,-1.038 -0.372,-2.031 -1.031,-2.741 z m -56.588,0.802 c -0.663,0.719 -1.038,1.713 -1.032,2.748 0.002,1.116 0.446,2.132 1.195,2.751 l 15.696,-4.591 c 0.028,-0.604 0.202,-1.189 0.504,-1.71 z m 56.884,-4.173 c -0.011,0.653 -0.19,1.275 -0.524,1.837 l 16.65,0.813 c 0.541,-0.693 0.781,-1.646 0.66,-2.64 -0.144,-1.171 -0.759,-2.217 -1.656,-2.822 z m -55.945,-2.812 c -0.894,0.604 -1.509,1.65 -1.656,2.823 -0.121,0.992 0.121,1.945 0.666,2.639 l 16.643,-0.813 c -0.335,-0.562 -0.514,-1.187 -0.526,-1.836 z m 2.059,-5.947 c -0.878,0.391 -1.574,1.258 -1.833,2.294 -0.192,0.779 -0.106,1.551 0.242,2.188 l 14.951,2.778 c 0.216,-0.521 0.549,-0.992 0.969,-1.375 z m 52.628,5.885 c 0.422,0.384 0.755,0.857 0.97,1.38 l 14.955,-2.789 c 0.345,-0.633 0.43,-1.402 0.238,-2.183 -0.258,-1.038 -0.958,-1.905 -1.839,-2.294 z m -0.193,-3.793 c 0.223,0.487 0.336,1.005 0.336,1.541 0,0.185 -0.016,0.372 -0.045,0.559 l 13.275,-5.449 c 0.263,-0.708 0.196,-1.554 -0.189,-2.341 -0.406,-0.828 -1.121,-1.482 -1.931,-1.77 z m -49.357,-7.461 c -0.81,0.289 -1.524,0.94 -1.931,1.766 -0.387,0.79 -0.455,1.636 -0.193,2.343 l 13.281,5.453 c -0.029,-0.185 -0.043,-0.372 -0.043,-0.56 -0.005,-0.535 0.108,-1.057 0.338,-1.554 z m 3.729,-4.478 c -0.907,0.146 -1.767,0.716 -2.322,1.548 -0.348,0.511 -0.542,1.075 -0.57,1.641 l 11.529,7.505 c 0.45,-0.413 0.985,-0.716 1.57,-0.889 -0.008,-0.031 -0.015,-0.063 -0.021,-0.093 z m 43.157,9.715 c -0.007,0.03 -0.013,0.06 -0.02,0.091 0.58,0.172 1.113,0.475 1.569,0.889 l 11.529,-7.502 c -0.025,-0.565 -0.218,-1.13 -0.565,-1.645 -0.563,-0.833 -1.423,-1.403 -2.326,-1.548 z m -38.777,-13.161 c -0.871,0.029 -1.738,0.413 -2.397,1.062 -0.401,0.387 -0.693,0.844 -0.854,1.334 l 9.167,8.736 c 0.145,-0.429 0.369,-0.835 0.659,-1.193 0.056,-0.067 0.115,-0.126 0.176,-0.182 z m 37.832,9.756 c 0.061,0.057 0.119,0.117 0.174,0.183 0.292,0.357 0.516,0.762 0.663,1.193 l 9.166,-8.737 c -0.159,-0.487 -0.45,-0.944 -0.849,-1.331 -0.662,-0.651 -1.532,-1.035 -2.404,-1.064 z m 2.223,-12.562 c -0.168,0 -0.333,0.012 -0.494,0.038 l -5.03,11.207 c -0.005,0.008 -0.009,0.016 -0.013,0.023 0.002,0.015 0.005,0.03 0.007,0.044 0.128,-0.012 0.251,-0.019 0.37,-0.019 0.565,0 1.139,0.131 1.678,0.38 l 6.728,-9.724 c -0.234,-0.468 -0.604,-0.893 -1.08,-1.237 -0.642,-0.459 -1.412,-0.712 -2.166,-0.712 m -35.528,-10e-4 c -0.753,0 -1.521,0.253 -2.164,0.714 -0.474,0.343 -0.845,0.767 -1.079,1.236 l 6.727,9.723 c 0.539,-0.248 1.113,-0.379 1.674,-0.379 0.129,0 0.252,0.006 0.372,0.017 0.002,-0.016 0.004,-0.031 0.007,-0.046 -0.006,-0.014 -5.037,-11.226 -5.037,-11.226 -0.162,-0.026 -0.33,-0.039 -0.5,-0.039 m 4.418,-2.091 c -0.438,0 -0.889,0.092 -1.302,0.265 -0.551,0.23 -1.005,0.592 -1.297,1.03 l 4.575,10.195 c 0.088,-0.107 0.179,-0.204 0.273,-0.294 0.317,-0.305 0.684,-0.552 1.093,-0.734 l -2.181,-10.226 c -0.343,-0.155 -0.742,-0.236 -1.161,-0.236 m 26.693,0 c -0.419,0 -0.818,0.081 -1.162,0.236 l -2.18,10.227 c 0.417,0.187 0.785,0.434 1.096,0.737 0.093,0.087 0.183,0.182 0.269,0.287 l 4.579,-10.192 c -0.292,-0.438 -0.747,-0.8 -1.295,-1.029 -0.416,-0.174 -0.869,-0.266 -1.307,-0.266 m -21.824,-0.685 c -0.09,0 -0.182,0.002 -0.275,0.01 -0.754,0.06 -1.422,0.368 -1.856,0.85 l 2.119,9.936 c 0.047,-0.003 0.093,-0.006 0.141,-0.006 0.644,0 1.3,0.164 1.898,0.468 l -0.49,-10.886 c -0.452,-0.241 -0.991,-0.372 -1.537,-0.372 m 16.954,0 c -0.552,0 -1.08,0.128 -1.537,0.372 l -0.49,10.884 c 0.598,-0.306 1.243,-0.466 1.897,-0.466 0.049,0 0.097,0.003 0.145,0.007 l 2.119,-9.942 c -0.434,-0.479 -1.102,-0.785 -1.859,-0.845 -0.092,-0.008 -0.184,-0.01 -0.275,-0.01 m -9.38,-18.776 -0.062,3.558 c -0.006,0.265 -0.154,0.511 -0.387,0.645 -0.885,0.491 -1.411,1.353 -1.411,2.308 0,0.931 0.496,1.781 1.328,2.276 0.239,0.141 0.383,0.396 0.376,0.666 -0.106,6.006 -0.226,10.774 -0.462,14.517 -0.13,2.105 -0.289,3.725 -0.482,4.952 -0.241,1.432 -0.449,2.259 -0.916,2.818 -0.542,0.607 -1.161,0.925 -1.796,0.925 -0.866,-0.017 -1.45,-0.533 -1.8,-0.842 -0.529,-0.483 -1.17,-0.736 -1.833,-0.736 -0.628,0 -1.219,0.235 -1.668,0.663 -0.46,0.436 -0.713,1.027 -0.713,1.663 0,0.099 0.008,0.198 0.019,0.297 0.034,0.27 -0.078,0.539 -0.296,0.697 -0.138,0.101 -0.308,0.157 -0.477,0.157 -0.093,0 -0.183,-0.017 -0.268,-0.048 -0.284,-0.097 -0.574,-0.147 -0.855,-0.147 -0.751,0.006 -1.444,0.327 -1.899,0.882 -0.341,0.418 -0.521,0.92 -0.521,1.454 0,0.396 0.103,0.786 0.299,1.129 0.132,0.239 0.128,0.52 -0.005,0.755 -0.132,0.23 -0.384,0.376 -0.657,0.38 -0.877,0.029 -1.675,0.508 -2.074,1.249 -0.182,0.331 -0.272,0.69 -0.272,1.067 0,0.605 0.251,1.202 0.688,1.64 0.186,0.189 0.263,0.449 0.208,0.697 -0.062,0.253 -0.235,0.448 -0.474,0.543 -0.943,0.364 -1.548,1.22 -1.544,2.18 0,0.791 0.411,1.521 1.097,1.963 0.233,0.146 0.372,0.409 0.354,0.67 -0.006,0.256 -0.159,0.504 -0.399,0.633 -0.788,0.429 -1.259,1.193 -1.259,2.046 0.005,0.765 0.381,1.458 1.031,1.904 0.183,0.118 0.31,0.33 0.331,0.563 0.016,0.227 -0.071,0.447 -0.238,0.609 -0.471,0.444 -0.741,1.059 -0.741,1.691 0.003,0.363 0.086,0.707 0.246,1.017 0.411,0.802 1.251,1.299 2.197,1.299 0.286,0 0.548,0.158 0.686,0.411 0.138,0.266 0.112,0.581 -0.066,0.805 -0.293,0.404 -0.459,0.897 -0.459,1.379 0,0.354 0.083,0.697 0.247,1.019 0.351,0.685 1.03,1.164 1.814,1.278 0.206,0.029 0.394,0.142 0.516,0.31 0.12,0.165 0.169,0.364 0.135,0.562 -0.053,0.37 -0.373,0.645 -0.761,0.645 -0.041,0 -0.083,-0.004 -0.126,-0.011 -0.153,-0.022 -0.314,-0.056 -0.48,-0.102 l -6.323,16.32 c 0.222,1.114 0.98,2.141 2.042,2.761 0.666,0.389 1.399,0.595 2.115,0.595 0.63,0 1.22,-0.159 1.714,-0.459 l 0.162,-0.997 c 1.023,-6.308 3.418,-21.077 3.918,-23.372 0.075,-0.328 0.112,-0.617 0.112,-0.862 -0.003,-0.597 -0.22,-0.942 -0.696,-1.697 l -0.133,-0.212 c -0.683,-1.094 -1.414,-2.433 -2.146,-4.807 -0.408,-1.326 -0.615,-2.79 -0.615,-4.354 0.015,-5.181 2.139,-10.107 5.285,-12.259 1.256,-0.843 2.37,-1.252 3.408,-1.252 1.174,0 2.194,0.587 2.82,1.61 0.567,0.914 0.855,2.137 0.855,3.634 0,0.148 0,0.292 -0.006,0.446 -0.038,0.988 -0.05,2.358 -0.064,3.944 -0.014,1.598 -0.03,3.409 -0.077,5.143 -0.091,2.935 -0.224,5.925 -0.744,7.484 l 0.005,0.025 -0.054,0.139 c -0.026,0.065 -0.057,0.139 -0.092,0.213 v 0.047 l -0.036,0.038 c -0.589,1.097 -1.73,1.906 -3.482,2.47 -0.019,0.298 -0.03,0.595 -0.03,0.886 0,0.657 0.049,1.349 0.146,2.058 1.253,1.412 3.834,2.321 6.613,2.321 h 0.077 c 1.662,0 3.31,-0.339 4.641,-0.954 0.067,-0.045 0.146,-0.08 0.234,-0.104 0.714,-0.355 1.309,-0.788 1.727,-1.257 0.099,-0.692 0.151,-1.402 0.151,-2.06 0,-0.273 -0.012,-0.572 -0.034,-0.89 -1.752,-0.565 -2.891,-1.377 -3.479,-2.475 L 8.31,-19.482 8.301,-19.515 C 8.27,-19.566 8.228,-19.664 8.185,-19.771 8.17,-19.809 8.161,-19.85 8.157,-19.895 7.678,-21.275 7.514,-23.791 7.406,-27.391 7.358,-29.13 7.343,-30.944 7.33,-32.545 c -0.014,-1.583 -0.025,-2.95 -0.063,-3.939 -0.006,-0.146 -0.01,-0.293 -0.01,-0.435 0,-1.502 0.289,-2.728 0.858,-3.643 0.625,-1.02 1.649,-1.607 2.807,-1.607 1.046,0.004 2.188,0.425 3.414,1.252 3.152,2.153 5.276,7.079 5.288,12.258 0,1.561 -0.207,3.026 -0.614,4.354 -0.719,2.347 -1.457,3.698 -2.147,4.807 l -0.147,0.235 c -0.466,0.744 -0.678,1.084 -0.678,1.675 0,0.229 0.035,0.51 0.108,0.861 0.529,2.414 3.186,18.838 4.059,24.236 l 0.022,0.134 c 0.494,0.3 1.083,0.459 1.714,0.459 0.717,0 1.448,-0.206 2.113,-0.595 1.059,-0.613 1.82,-1.64 2.049,-2.76 l -6.327,-16.321 c -0.164,0.046 -0.323,0.081 -0.482,0.105 -0.04,0.006 -0.08,0.009 -0.119,0.009 -0.388,0 -0.71,-0.274 -0.768,-0.65 -0.03,-0.199 0.023,-0.405 0.145,-0.567 0.125,-0.166 0.308,-0.272 0.516,-0.299 0.776,-0.116 1.454,-0.596 1.808,-1.281 0.163,-0.32 0.246,-0.662 0.246,-1.015 0,-0.486 -0.166,-0.977 -0.467,-1.383 l -0.062,-0.084 v -0.05 c -0.066,-0.164 -0.093,-0.289 -0.085,-0.395 l -0.011,-0.017 0.051,-0.147 c 0.093,-0.272 0.335,-0.468 0.633,-0.514 l 0.093,-0.008 c 0.007,0 0.043,0 0.092,0.006 0.883,-0.018 1.706,-0.517 2.107,-1.304 0.168,-0.315 0.251,-0.655 0.251,-1.016 0,-0.633 -0.27,-1.247 -0.74,-1.684 -0.171,-0.16 -0.255,-0.385 -0.235,-0.618 0.014,-0.219 0.133,-0.426 0.326,-0.56 0.642,-0.441 1.017,-1.119 1.034,-1.865 l -0.001,-0.042 c 0,-0.839 -0.481,-1.622 -1.255,-2.043 -0.238,-0.121 -0.395,-0.369 -0.403,-0.643 -0.013,-0.264 0.124,-0.522 0.358,-0.666 0.679,-0.433 1.09,-1.163 1.095,-1.951 v -0.008 c 0,-0.964 -0.604,-1.819 -1.542,-2.177 -0.252,-0.104 -0.423,-0.303 -0.475,-0.55 -0.055,-0.244 0.021,-0.502 0.202,-0.69 0.447,-0.446 0.69,-1.028 0.69,-1.644 0,-0.379 -0.09,-0.738 -0.266,-1.069 -0.4,-0.733 -1.2,-1.212 -2.088,-1.247 -0.26,-0.004 -0.509,-0.148 -0.645,-0.377 -0.136,-0.236 -0.14,-0.517 -0.01,-0.753 0.199,-0.344 0.302,-0.733 0.302,-1.134 0,-0.532 -0.179,-1.034 -0.521,-1.451 -0.46,-0.559 -1.154,-0.878 -1.902,-0.878 -0.293,0 -0.584,0.047 -0.863,0.143 -0.075,0.029 -0.166,0.046 -0.26,0.046 -0.171,0 -0.339,-0.057 -0.474,-0.162 -0.211,-0.153 -0.328,-0.418 -0.3,-0.686 0.015,-0.108 0.02,-0.208 0.02,-0.304 0,-0.641 -0.251,-1.231 -0.709,-1.661 -0.451,-0.43 -1.044,-0.665 -1.671,-0.665 -0.662,0 -1.304,0.253 -1.805,0.711 -0.383,0.339 -0.967,0.855 -1.824,0.866 -0.639,10e-4 -1.258,-0.317 -1.793,-0.917 -0.473,-0.566 -0.687,-1.428 -0.919,-2.821 -0.622,-3.948 -0.808,-11.78 -0.944,-19.465 -0.003,-0.278 0.136,-0.527 0.375,-0.67 0.842,-0.494 1.343,-1.346 1.343,-2.28 0,-0.949 -0.541,-1.835 -1.413,-2.31 -0.243,-0.134 -0.396,-0.385 -0.399,-0.656 L 5.954,-76.61 Z" /></g><g
           transform="translate(163.1845,86.7055)"
           id="g28"><path
             id="path30"
             style="fill:#000000;fill-opacity:1;fill-rule:nonzero;stroke:none"
             d="m 0,0 c 0,-6.047 -3.996,-9.935 -10.835,-9.935 -6.803,0 -10.835,3.888 -10.835,9.935 v 16.486 h 5.544 V 0.54 c 0,-3.384 1.907,-5.399 5.291,-5.399 3.42,0 5.291,2.015 5.291,5.399 V 16.486 H 0 Z" /></g><g
           transform="translate(190.328,76.8783)"
           id="g32"><path
             id="path34"
             style="fill:#000000;fill-opacity:1;fill-rule:nonzero;stroke:none"
             d="m 0,0 -14.219,13.643 -1.691,1.475 V 0.396 h -5.436 v 26.313 h 0.216 L -6.947,13.066 -5.292,11.591 V 26.313 H 0.18 L 0.18,0 Z" /></g><path
           id="path36"
           style="fill:#000000;fill-opacity:1;fill-rule:nonzero;stroke:none"
           d="m 196.666,103.192 h 5.543 V 77.275 h -5.543 z" /><g
           transform="translate(218.0849,76.8783)"
           id="g38"><path
             id="path40"
             style="fill:#000000;fill-opacity:1;fill-rule:nonzero;stroke:none"
             d="m 0,0 h -0.216 l -12.778,26.313 h 6.047 l 3.384,-7.487 c 1.332,-2.988 2.519,-5.544 3.419,-8.063 0.756,1.836 2.339,5.508 3.492,8.063 l 3.383,7.487 h 6.011 z" /></g><g
           transform="translate(233.745,77.2748)"
           id="g42"><path
             id="path44"
             style="fill:#000000;fill-opacity:1;fill-rule:nonzero;stroke:none"
             d="M 0,0 V 25.917 H 16.666 V 21.273 H 5.543 V 15.37 h 9.432 V 10.906 H 5.543 V 4.644 h 11.663 l 0,-4.644 z" /></g><g
           transform="translate(260.8886,98.5482)"
           id="g46"><path
             id="path48"
             style="fill:#000000;fill-opacity:1;fill-rule:nonzero;stroke:none"
             d="m 0,0 v -7.739 h 3.959 c 2.448,0 4.14,1.223 4.14,3.851 C 8.099,-1.296 6.335,0 3.815,0 Z m 3.671,4.644 c 6.012,0 10.007,-2.989 10.007,-8.532 0,-3.779 -2.123,-6.263 -4.931,-7.379 l 5.435,-10.006 H 8.314 l -4.571,9.07 H 0 v -9.07 H -5.436 V 4.644 Z" /></g><g
           transform="translate(278.3134,78.2465)"
           id="g50"><path
             id="path52"
             style="fill:#000000;fill-opacity:1;fill-rule:nonzero;stroke:none"
             d="M 0,0 V 5.327 C 1.8,4.392 4.175,3.6 6.515,3.455 c 0.828,-0.035 1.62,0 2.303,0.145 1.98,0.288 3.132,1.044 3.132,2.303 0,1.728 -1.548,2.628 -5.111,3.924 -4.535,1.655 -7.199,3.564 -7.199,8.063 0,4.607 3.815,7.559 9.394,7.559 2.592,0 5.148,-0.576 6.768,-1.296 v -5.111 c -1.512,0.899 -3.96,1.583 -6.335,1.583 -2.664,0 -4.392,-1.044 -4.392,-2.699 0,-1.512 1.404,-2.556 4.932,-3.888 4.535,-1.764 7.343,-3.672 7.343,-8.027 0,-4.679 -3.528,-7.487 -9.647,-7.487 C 4.751,-1.476 1.871,-0.828 0,0" /></g><path
           id="path54"
           style="fill:#000000;fill-opacity:1;fill-rule:nonzero;stroke:none"
           d="m 299.983,103.192 h 5.543 V 77.275 h -5.543 z" /><g
           transform="translate(322.0146,98.5482)"
           id="g56"><path
             id="path58"
             style="fill:#000000;fill-opacity:1;fill-rule:nonzero;stroke:none"
             d="M 0,0 V -21.273 H -5.544 V 0 h -7.234 V 4.644 H 7.271 L 7.271,0 Z" /></g><g
           transform="translate(335.5868,103.1918)"
           id="g60"><path
             id="path62"
             style="fill:#000000;fill-opacity:1;fill-rule:nonzero;stroke:none"
             d="M 0,0 5.939,-10.619 11.879,0 h 6.263 L 8.711,-15.874 V -25.917 H 3.168 v 10.043 L -6.228,0 Z" /></g><g
           transform="translate(153.789,46.9945)"
           id="g64"><path
             id="path66"
             style="fill:#000000;fill-opacity:1;fill-rule:nonzero;stroke:none"
             d="m 0,0 c 4.68,0 7.991,3.743 7.991,8.387 0,4.607 -3.311,8.386 -7.991,8.386 -4.679,0 -7.99,-3.779 -7.99,-8.386 C -7.99,3.743 -4.679,0 0,0 M 0,21.85 C 7.812,21.85 13.57,15.874 13.57,8.387 13.57,0.828 7.848,-5.075 0,-5.075 c -7.847,0 -13.569,5.903 -13.569,13.462 0,7.451 5.722,13.463 13.569,13.463" /></g><g
           transform="translate(177.4413,63.6967)"
           id="g68"><path
             id="path70"
             style="fill:#000000;fill-opacity:1;fill-rule:nonzero;stroke:none"
             d="m 0,0 v -6.191 h 8.64 v -4.572 H 0 v -10.51 H -5.543 V 4.644 H 10.259 V 0 Z" /></g><g
           transform="translate(209.2646,63.6967)"
           id="g72"><path
             id="path74"
             style="fill:#000000;fill-opacity:1;fill-rule:nonzero;stroke:none"
             d="M 0,0 V -21.273 H -5.544 V 0 h -7.234 V 4.644 H 7.271 L 7.271,0 Z" /></g><g
           transform="translate(241.5546,51.8539)"
           id="g76"><path
             id="path78"
             style="fill:#000000;fill-opacity:1;fill-rule:nonzero;stroke:none"
             d="m 0,0 c 0,-6.047 -3.996,-9.935 -10.835,-9.935 -6.803,0 -10.835,3.888 -10.835,9.935 v 16.486 h 5.544 V 0.54 c 0,-3.384 1.907,-5.399 5.291,-5.399 3.42,0 5.291,2.015 5.291,5.399 V 16.486 H 0 Z" /></g><g
           transform="translate(252.788,63.6967)"
           id="g80"><path
             id="path82"
             style="fill:#000000;fill-opacity:1;fill-rule:nonzero;stroke:none"
             d="m 0,0 v -7.739 h 3.959 c 2.448,0 4.14,1.223 4.14,3.851 C 8.099,-1.296 6.335,0 3.815,0 Z m 3.671,4.644 c 6.012,0 10.007,-2.989 10.007,-8.532 0,-3.779 -2.123,-6.263 -4.931,-7.379 l 5.435,-10.006 H 8.314 l -4.571,9.07 H 0 v -9.07 H -5.436 V 4.644 Z" /></g><g
           transform="translate(276.9433,56.101)"
           id="g84"><path
             id="path86"
             style="fill:#000000;fill-opacity:1;fill-rule:nonzero;stroke:none"
             d="M 0,0 10.079,12.239 H 16.63 L 7.451,1.404 16.774,-13.678 H 10.583 L 3.708,-2.159 0,-6.371 v -7.307 H -5.543 V 12.239 H 0 Z" /></g><g
           transform="translate(318.2694,51.8539)"
           id="g88"><path
             id="path90"
             style="fill:#000000;fill-opacity:1;fill-rule:nonzero;stroke:none"
             d="m 0,0 c 0,-6.047 -3.996,-9.935 -10.835,-9.935 -6.803,0 -10.835,3.888 -10.835,9.935 v 16.486 h 5.544 V 0.54 c 0,-3.384 1.907,-5.399 5.291,-5.399 3.42,0 5.291,2.015 5.291,5.399 V 16.486 H 0 Z" /></g></g></g></g></svg>